<?xml version="1.0" standalone="no"?><!DOCTYPE svg PUBLIC "-//W3C//DTD SVG 1.1//EN" "http://www.w3.org/Graphics/SVG/1.1/DTD/svg11.dtd"><svg t="1698819643360" class="icon" viewBox="0 0 1024 1024" version="1.1" xmlns="http://www.w3.org/2000/svg" p-id="9863" width="128" height="128" xmlns:xlink="http://www.w3.org/1999/xlink"><path d="M797.110857 493.714286q0 7.460571-5.705143 13.165714l-266.313143 266.313143q-5.705143 5.705143-13.165714 5.705143t-13.165714-5.705143l-266.313143-266.313143q-5.705143-5.705143-5.705143-13.165714t5.705143-13.165714l28.598857-28.598857q5.705143-5.705143 13.165714-5.705143t13.165714 5.705143l224.548571 224.548571 224.548571-224.548571q5.705143-5.705143 13.165714-5.705143t13.165714 5.705143l28.598857 28.598857q5.705143 5.705143 5.705143 13.165714zM797.110857 274.285714q0 7.460571-5.705143 13.165714l-266.313143 266.313143q-5.705143 5.705143-13.165714 5.705143t-13.165714-5.705143l-266.313143-266.313143q-5.705143-5.705143-5.705143-13.165714t5.705143-13.165714l28.598857-28.598857q5.705143-5.705143 13.165714-5.705143t13.165714 5.705143l224.548571 224.548571 224.548571-224.548571q5.705143-5.705143 13.165714-5.705143t13.165714 5.705143l28.598857 28.598857q5.705143 5.705143 5.705143 13.165714z" fill="#e6e6e6" p-id="9864"></path></svg>