<svg width="196" height="196" viewBox="0 0 196 196" fill="none" xmlns="http://www.w3.org/2000/svg">
<path d="M6.14217 112.208C-1.66832 104.398 -1.66832 91.7344 6.14217 83.9239L83.9239 6.14217C91.7344 -1.66832 104.398 -1.66832 112.208 6.14217L189.99 83.9239C197.8 91.7344 197.8 104.398 189.99 112.208L112.208 189.99C104.398 197.8 91.7344 197.8 83.9239 189.99L6.14217 112.208Z" fill="#2F74C6"/>
<path d="M23.2132 118.673C11.4975 106.957 11.4975 87.9619 23.2132 76.2462L76.2462 23.2132C87.962 11.4975 106.957 11.4975 118.673 23.2132L171.706 76.2462C183.421 87.9619 183.421 106.957 171.706 118.673L118.673 171.706C106.957 183.421 87.962 183.421 76.2462 171.706L23.2132 118.673Z" fill="#5394E1"/>
<path d="M42.7795 51.59V47.24H69.4595L111.22 135.98L106.435 147H87.5845L42.7795 51.59ZM124.705 105.095H124.125L114.41 128.585L101.94 101.905L124.705 47.24H152.255V147H124.705V105.095ZM42.7795 65.945L69.4595 122.785V147H42.7795V65.945Z" fill="#09377C"/>
</svg>
