<?xml version="1.0" standalone="no"?><!DOCTYPE svg PUBLIC "-//W3C//DTD SVG 1.1//EN" "http://www.w3.org/Graphics/SVG/1.1/DTD/svg11.dtd"><svg t="1698824272461" class="icon" viewBox="0 0 1024 1024" version="1.1" xmlns="http://www.w3.org/2000/svg" p-id="37029" xmlns:xlink="http://www.w3.org/1999/xlink" width="32" height="32"><path d="M983.744 531.84c0-0.32-0.192-1.664-0.256-1.984 0 0-0.128-0.896-0.256-1.28-0.064-0.256-0.128-0.512-0.192-0.768l-0.064-0.32c-0.128-0.384-0.512-1.6-0.576-1.856 0 0-0.448-1.152-0.576-1.472-0.128-0.256-0.512-1.024-0.512-1.024-0.192-0.32-0.32-0.704-0.512-1.024-0.128-0.256-0.32-0.512-0.448-0.768 0 0-0.512-0.832-0.768-1.152-0.256-0.32-1.6-2.048-1.728-2.24L582.72 72.512C564.224 51.648 539.264 40.128 512.448 40.128 512.32 40.128 512.128 40.192 512 40.192S511.68 40.128 511.552 40.128c-26.816 0-51.776 11.52-70.272 32.384L46.144 517.888c-0.128 0.192-1.472 1.92-1.728 2.24C44.16 520.448 43.648 521.28 43.648 521.28 43.52 521.536 43.328 521.792 43.2 522.048 43.008 522.432 42.816 522.752 42.688 523.072c0 0-0.384 0.832-0.512 1.024C41.984 524.544 41.536 525.632 41.536 525.632 41.472 525.888 41.088 527.104 41.024 527.488L40.896 527.808C40.832 528.064 40.768 528.32 40.704 528.576c-0.064 0.32-0.256 1.28-0.256 1.28C40.448 530.176 40.256 531.52 40.256 531.84c0 0.32 0 1.728 0.064 3.008 0 0.064 0 0.064 0 0.128 0 0 0 0.064 0 0.064 0 0.768 0.064 1.6 0.064 1.728 0.064 0.384 0.32 1.92 0.448 2.368 0.064 0.32 0.512 1.856 0.64 2.24 0.128 0.32 0.64 1.792 0.832 2.176 0.128 0.32 0.832 1.664 1.088 2.048C43.52 545.856 44.352 547.2 44.672 547.584 44.8 547.776 45.824 549.12 46.208 549.504c0.128 0.128 1.28 1.344 1.792 1.792 0 0 3.264 2.496 3.84 2.816 0 0 1.408 0.768 1.984 1.024 3.328 1.536 6.656 2.304 10.112 2.304l81.472 0 0 327.296c0 46.016 30.976 86.72 75.264 99.008l0.96 0 182.016 0 0.96 0L404.608 615.104c0-30.4 24.768-55.168 55.168-55.168l104.32 0c30.4 0 55.168 24.768 55.168 55.168l0 368.768 0.96 0 182.016 0 0.96 0c44.352-12.352 75.264-52.992 75.264-99.008L878.464 557.504l81.472 0c3.456 0 6.784-0.768 10.112-2.304 0.576-0.256 1.984-1.024 1.984-1.024 0.64-0.384 3.84-2.816 3.84-2.816 0.512-0.448 1.664-1.664 1.792-1.792 0.384-0.448 1.408-1.728 1.536-1.92 0.32-0.384 1.152-1.728 1.28-1.984 0.256-0.384 0.96-1.792 1.088-2.048 0.192-0.384 0.768-1.856 0.832-2.176 0.128-0.384 0.576-1.92 0.64-2.24 0.064-0.384 0.384-1.984 0.448-2.368 0-0.128 0.064-0.96 0.064-1.728 0 0 0-0.064 0-0.064 0-0.064 0-0.064 0-0.128C983.744 533.568 983.808 532.16 983.744 531.84z" fill="#272636" p-id="37030"></path></svg>