<?xml version="1.0" standalone="no"?><!DOCTYPE svg PUBLIC "-//W3C//DTD SVG 1.1//EN" "http://www.w3.org/Graphics/SVG/1.1/DTD/svg11.dtd"><svg t="1698823375706" class="icon" viewBox="0 0 1024 1024" version="1.1" xmlns="http://www.w3.org/2000/svg" p-id="22849" width="32" height="32" xmlns:xlink="http://www.w3.org/1999/xlink"><path d="M475.4944 842.24h-37.5296c-196.864 0-356.9664-160.1536-356.9664-356.9664V311.4496c0-37.632 30.6176-68.2496 68.2496-68.2496h614.9632c37.632 0 68.2496 30.6176 68.2496 68.2496v173.7728c0 196.864-160.1536 357.0176-356.9664 357.0176z m-322.8672-527.36v170.3936c0 157.3376 128 285.2864 285.2864 285.2864h37.5296c157.3376 0 285.2864-128 285.2864-285.2864V314.88H152.6272z" fill="#ffffff" p-id="22850"></path><path d="M830.0032 591.3088h-38.656c-19.8144 0-35.84-16.0256-35.84-35.84s16.0256-35.84 35.84-35.84h38.656c30.0544 0 54.528-23.6544 54.528-52.736s-24.4736-52.736-54.528-52.736h-31.7952c-19.8144 0-35.84-16.0256-35.84-35.84s16.0256-35.84 35.84-35.84h31.7952c69.5808 0 126.208 55.808 126.208 124.416s-56.6272 124.416-126.208 124.416z" fill="#ffffff" p-id="22851"></path><path d="M324.4544 218.3168c-19.8144 0-35.84-16.0256-35.84-35.84V102.1952c0-19.8144 16.0256-35.84 35.84-35.84s35.84 16.0256 35.84 35.84v80.2816c0 19.8144-16.0768 35.84-35.84 35.84zM455.6288 218.3168c-19.8144 0-35.84-16.0256-35.84-35.84V102.1952c0-19.8144 16.0256-35.84 35.84-35.84s35.84 16.0256 35.84 35.84v80.2816c0 19.8144-16.0768 35.84-35.84 35.84zM587.1616 218.3168c-19.8144 0-35.84-16.0256-35.84-35.84V102.1952c0-19.8144 16.0256-35.84 35.84-35.84s35.84 16.0256 35.84 35.84v80.2816c0 19.8144-16.0768 35.84-35.84 35.84z" fill="#ffffff" p-id="22852"></path><path d="M774.5536 941.6192H160.512c-19.8144 0-35.84-16.0256-35.84-35.84s16.0256-35.84 35.84-35.84h614.0416c19.8144 0 35.84 16.0256 35.84 35.84s-16.0256 35.84-35.84 35.84z" fill="#ffffff" p-id="22853"></path></svg>