<?xml version="1.0" standalone="no"?><!DOCTYPE svg PUBLIC "-//W3C//DTD SVG 1.1//EN" "http://www.w3.org/Graphics/SVG/1.1/DTD/svg11.dtd"><svg t="1698823310319" class="icon" viewBox="0 0 1024 1024" version="1.1" xmlns="http://www.w3.org/2000/svg" p-id="18919" width="32" height="32" xmlns:xlink="http://www.w3.org/1999/xlink"><path d="M768 238.933333h-512c-17.066667 0-30.72 13.653333-30.72 30.72s13.653333 30.72 30.72 30.72h512c17.066667 0 30.72-13.653333 30.72-30.72s-13.653333-30.72-30.72-30.72zM768 450.56h-512c-17.066667 0-30.72 13.653333-30.72 30.72s13.653333 30.72 30.72 30.72h512c17.066667 0 30.72-13.653333 30.72-30.72s-13.653333-30.72-30.72-30.72z" fill="#ffffff" p-id="18920"></path><path d="M897.706667 0H126.293333C88.746667 0 61.44 30.72 61.44 71.68v880.64C61.44 993.28 88.746667 1024 126.293333 1024H573.44c23.893333 0 44.373333-13.653333 54.613333-30.72 0 0 3.413333 0 3.413334-3.413333l307.2-310.613334c13.653333-10.24 20.48-27.306667 20.48-47.786666V71.68C962.56 30.72 931.84 0 897.706667 0z m-259.413334 904.533333v-143.36c0-34.133333 27.306667-61.44 64.853334-61.44h139.946666l-204.8 204.8z m266.24-273.066666c0 3.413333-3.413333 6.826667-6.826666 6.826666h-191.146667c-68.266667 0-122.88 54.613333-122.88 119.466667v201.386667c0 3.413333-3.413333 6.826667-6.826667 6.826666H126.293333s-6.826667-6.826667-6.826666-13.653333V71.68c0-10.24 6.826667-13.653333 6.826666-13.653333h771.413334s6.826667 6.826667 6.826666 13.653333v559.786667z" fill="#ffffff" p-id="18921"></path></svg>